<svg id="document" xmlns="http://www.w3.org/2000/svg" width="16" height="16" viewBox="0 0 16 16">
  <rect id="Rectangle_203" data-name="Rectangle 203" width="16" height="16" fill="none"/>
  <path id="Icon_metro-file-text" data-name="Icon metro-file-text" d="M17.839,5.507a14.17,14.17,0,0,0-1.362-1.558,14.171,14.171,0,0,0-1.558-1.362A2.492,2.492,0,0,0,13.5,1.928H5.749A1.251,1.251,0,0,0,4.5,3.178v13.5a1.251,1.251,0,0,0,1.25,1.25h11.5a1.251,1.251,0,0,0,1.25-1.25V6.928a2.492,2.492,0,0,0-.659-1.421ZM15.77,4.657A13.638,13.638,0,0,1,16.9,5.928H14.5V3.523A13.624,13.624,0,0,1,15.77,4.657ZM17.5,16.678a.253.253,0,0,1-.25.25H5.749a.253.253,0,0,1-.25-.25V3.178a.253.253,0,0,1,.25-.25H13.5v3.5a.5.5,0,0,0,.5.5h3.5ZM15,14.928H8a.5.5,0,0,1,0-1h7a.5.5,0,0,1,0,1Zm0-2H8a.5.5,0,1,1,0-1h7a.5.5,0,1,1,0,1Zm0-2H8a.5.5,0,1,1,0-1h7a.5.5,0,1,1,0,1Z" transform="translate(-3.499 -1.928)" fill="#00a19c"/>
</svg>
