<svg id="video_audio" data-name="video &amp; audio" xmlns="http://www.w3.org/2000/svg" width="16" height="16.001" viewBox="0 0 16 16.001">
  <rect id="Rectangle_205" data-name="Rectangle 205" width="16" height="16" fill="none"/>
  <path id="Union_7" data-name="Union 7" d="M12.282,16V15.14h.859V16Zm-1.718,0V15.14h.859V16ZM8.846,16V15.14H9.7V16Zm1.718-1.721V12.869A3,3,0,0,1,7.987,9.977h.73a2.278,2.278,0,0,0,4.553,0H14a3,3,0,0,1-2.577,2.891V14.28Zm-9.517-.86A1.049,1.049,0,0,1,0,12.371V1.049A1.049,1.049,0,0,1,1.046,0H7.535a2.088,2.088,0,0,1,1.19.553,11.946,11.946,0,0,1,1.3,1.143A11.976,11.976,0,0,1,11.169,3a2.091,2.091,0,0,1,.552,1.191V5.4h-.837V4.193H7.954a.419.419,0,0,1-.419-.419V.839H1.046a.213.213,0,0,0-.209.211V12.371a.212.212,0,0,0,.209.21H8.2v.839H1.046ZM8.372,3.355h2.014a11.579,11.579,0,0,0-.95-1.066,11.6,11.6,0,0,0-1.065-.951ZM9.7,9.977V7.4a1.288,1.288,0,1,1,2.577,0l0,2.581a1.286,1.286,0,1,1-2.572,0ZM4.186,10.9V5.032L8.372,7.968,4.187,10.9Z" transform="translate(1)" fill="#fff"/>
</svg>
