<svg xmlns="http://www.w3.org/2000/svg" width="16" height="14" viewBox="0 0 16 14">
  <path id="Power_BI" data-name="Power BI" d="M14.228,13.1V6.095a.9.9,0,1,1,1.8,0V13.1a.9.9,0,1,1-1.8,0Zm-2.751,0V9.459a.9.9,0,0,1,1.8,0V13.1a.9.9,0,0,1-1.8,0Zm-2.638,0V8.114a.9.9,0,1,1,1.8,0V13.1a.9.9,0,0,1-1.8,0Zm-2.751,0V11.141a.9.9,0,0,1,1.8,0V13.1a.9.9,0,0,1-1.8,0ZM16.754,9.417a2.328,2.328,0,0,0,1.05-.756,2.467,2.467,0,0,0,.244-1.146V2.69A2.006,2.006,0,0,0,17.56,1.5a2.43,2.43,0,0,0-1.111-.487H5.663A2.023,2.023,0,0,0,4.458,1.5,1.529,1.529,0,0,0,3.98,2.545V7.862a1.811,1.811,0,0,0,.4,1.01,2.431,2.431,0,0,0,1.063.545V10.43h-.2A2.244,2.244,0,0,1,3,8.187V2.243A2.244,2.244,0,0,1,5.245,0H16.754A2.244,2.244,0,0,1,19,2.243V8.187a2.244,2.244,0,0,1-2.246,2.243Z" transform="translate(-3)" fill="#fff"/>
</svg>
