<svg id="graph" xmlns="http://www.w3.org/2000/svg" xmlns:xlink="http://www.w3.org/1999/xlink" width="80" height="80" viewBox="0 0 80 80">
  <defs>
    <radialGradient id="radial-gradient" cx="0.5" cy="0.5" r="0.5" gradientUnits="objectBoundingBox">
      <stop offset="0" stop-color="#a3fffc"/>
      <stop offset="1" stop-color="#0c877a"/>
    </radialGradient>
  </defs>
  <rect id="Rectangle_201" data-name="Rectangle 201" width="80" height="80" fill="none"/>
  <path id="Icon_simple-graphcool" data-name="Icon simple-graphcool" d="M68.77,26.43c-3.98-2.19-8.98.667-9.781,1.16L41.81,37.114a6.827,6.827,0,0,0-8.591.2,6.454,6.454,0,0,0-1.347,8.294,6.777,6.777,0,0,0,8.1,2.787,6.538,6.538,0,0,0,4.263-7.29l17.131-9.5.109-.063c1.125-.7,3.738-1.737,4.959-1.063.88.487,1.381,2.11,1.422,4.5h-.02v21a5.481,5.481,0,0,1-2.807,4.753L40.4,74.638a5.744,5.744,0,0,1-5.614,0L10.158,60.731a5.481,5.481,0,0,1-2.807-4.753v-27.8a5.472,5.472,0,0,1,2.807-4.75L32.449,10.853A6.8,6.8,0,0,0,40.9,12.186,6.475,6.475,0,0,0,43.8,4.31,6.722,6.722,0,0,0,36.4.09a6.6,6.6,0,0,0-5.6,6.337L7.8,19.41a10.093,10.093,0,0,0-5.2,8.767V55.971a10.093,10.093,0,0,0,5.18,8.77L32.414,78.648a10.591,10.591,0,0,0,10.358,0L67.4,64.741a10.111,10.111,0,0,0,5.18-8.764V35.77H72.6c.116-4.74-1.183-7.877-3.83-9.34Z" transform="translate(2.393)" fill="url(#radial-gradient)"/>
</svg>
