<svg xmlns="http://www.w3.org/2000/svg" width="24" height="24" viewBox="0 0 24 24">
  <g id="icon_list" data-name="icon list" transform="translate(-999 -1751)">
    <rect id="Rectangle_75" data-name="Rectangle 75" width="24" height="24" transform="translate(999 1751)" fill="none"/>
    <path id="icon_list-2" data-name="icon list" d="M5.5-5617a1.5,1.5,0,0,1-1.5-1.5,1.5,1.5,0,0,1,1.5-1.5h13a1.5,1.5,0,0,1,1.5,1.5,1.5,1.5,0,0,1-1.5,1.5ZM0-5618.5a1.5,1.5,0,0,1,1.5-1.5,1.5,1.5,0,0,1,1.5,1.5,1.5,1.5,0,0,1-1.5,1.5A1.5,1.5,0,0,1,0-5618.5Zm5.5-4.5a1.5,1.5,0,0,1-1.5-1.5,1.5,1.5,0,0,1,1.5-1.5h13a1.5,1.5,0,0,1,1.5,1.5,1.5,1.5,0,0,1-1.5,1.5ZM0-5624.5a1.5,1.5,0,0,1,1.5-1.5,1.5,1.5,0,0,1,1.5,1.5,1.5,1.5,0,0,1-1.5,1.5A1.5,1.5,0,0,1,0-5624.5Zm5.5-4.5a1.5,1.5,0,0,1-1.5-1.5,1.5,1.5,0,0,1,1.5-1.5h13a1.5,1.5,0,0,1,1.5,1.5,1.5,1.5,0,0,1-1.5,1.5ZM0-5630.5a1.5,1.5,0,0,1,1.5-1.5,1.5,1.5,0,0,1,1.5,1.5,1.5,1.5,0,0,1-1.5,1.5A1.5,1.5,0,0,1,0-5630.5Z" transform="translate(1001 7387)" fill="#333436"/>
  </g>
</svg>
