<svg xmlns="http://www.w3.org/2000/svg" width="24" height="24" viewBox="0 0 24 24">
  <g id="icon_flow" data-name="icon flow" transform="translate(-971 -1751)">
    <rect id="Rectangle_68" data-name="Rectangle 68" width="24" height="24" transform="translate(971 1751)" fill="none"/>
    <path id="Icon_metro-flow-tree" data-name="Icon metro-flow-tree" d="M18.511,15.132V12.66a3.723,3.723,0,0,0-3.723-3.723H12.66a1.6,1.6,0,0,1-1.6-1.6V4.868a2.553,2.553,0,1,0-2.128,0V7.34a1.6,1.6,0,0,1-1.6,1.6H5.213A3.723,3.723,0,0,0,1.489,12.66v2.472a2.553,2.553,0,1,0,2.128,0V12.66a1.6,1.6,0,0,1,1.6-1.6H7.34a3.685,3.685,0,0,0,1.6-.372v4.44a2.553,2.553,0,1,0,2.128,0v-4.44a3.685,3.685,0,0,0,1.6.372h2.128a1.6,1.6,0,0,1,1.6,1.6v2.472a2.553,2.553,0,1,0,2.128,0ZM10,1.08A1.473,1.473,0,1,1,8.528,2.553,1.472,1.472,0,0,1,10,1.08ZM2.553,18.92a1.473,1.473,0,1,1,1.472-1.473A1.473,1.473,0,0,1,2.553,18.92Zm7.447,0a1.473,1.473,0,1,1,1.472-1.473A1.473,1.473,0,0,1,10,18.92Zm7.447,0a1.473,1.473,0,1,1,1.472-1.473,1.473,1.473,0,0,1-1.472,1.473Z" transform="translate(973 1773) rotate(-90)" fill="#333436"/>
  </g>
</svg>
