<svg id="image" xmlns="http://www.w3.org/2000/svg" xmlns:xlink="http://www.w3.org/1999/xlink" width="80" height="80" viewBox="0 0 80 80">
  <defs>
    <radialGradient id="radial-gradient" cx="0.5" cy="0.5" r="0.5" gradientUnits="objectBoundingBox">
      <stop offset="0" stop-color="#a3fffc"/>
      <stop offset="1" stop-color="#0c877a"/>
    </radialGradient>
  </defs>
  <rect id="Rectangle_204" data-name="Rectangle 204" width="80" height="80" fill="none"/>
  <path id="Icon_metro-file-image" data-name="Icon metro-file-image" d="M69.472,19.168a10.364,10.364,0,0,1,2.188,3.393,10.126,10.126,0,0,1,.911,3.929V77.918a4.091,4.091,0,0,1-1.276,3.036,4.264,4.264,0,0,1-3.1,1.25H6.946a4.264,4.264,0,0,1-3.1-1.25,4.091,4.091,0,0,1-1.276-3.036V6.489A4.091,4.091,0,0,1,3.847,3.454a4.264,4.264,0,0,1,3.1-1.25H47.779a10.705,10.705,0,0,1,4.01.893,10.634,10.634,0,0,1,3.464,2.143ZM49.237,8.275V25.061H66.373a4.85,4.85,0,0,0-1-1.83L51.106,9.257a5.009,5.009,0,0,0-1.869-.982Zm17.5,68.214V30.775H47.779a4.264,4.264,0,0,1-3.1-1.25A4.091,4.091,0,0,1,43.4,26.489V7.918H8.4V76.489H66.737Zm-5.833-20V70.775H14.237V62.2l8.75-8.571,5.833,5.714L46.321,42.2ZM22.987,47.918a8.528,8.528,0,0,1-6.2-2.5,8.5,8.5,0,0,1,0-12.143,8.528,8.528,0,0,1,6.2-2.5,8.528,8.528,0,0,1,6.2,2.5,8.5,8.5,0,0,1,0,12.143A8.528,8.528,0,0,1,22.987,47.918Z" transform="translate(2.429 -2.203)" fill="url(#radial-gradient)"/>
</svg>
