<svg id="image" xmlns="http://www.w3.org/2000/svg" width="16" height="16" viewBox="0 0 16 16">
  <rect id="Rectangle_204" data-name="Rectangle 204" width="16" height="16" fill="none"/>
  <path id="Icon_metro-file-image" data-name="Icon metro-file-image" d="M15.951,5.6a2.073,2.073,0,0,1,.438.679,2.025,2.025,0,0,1,.182.786V17.346a.818.818,0,0,1-.255.607.853.853,0,0,1-.62.25H3.446a.853.853,0,0,1-.62-.25.818.818,0,0,1-.255-.607V3.061a.818.818,0,0,1,.255-.607.853.853,0,0,1,.62-.25h8.167a2.454,2.454,0,0,1,1.495.607ZM11.9,3.418V6.775h3.427a.97.97,0,0,0-.2-.366L12.278,3.614a1,1,0,0,0-.374-.2Zm3.5,13.643V7.918H11.612a.853.853,0,0,1-.62-.25.818.818,0,0,1-.255-.607V3.346h-7V17.061H15.4Zm-1.167-4v2.857H4.9V14.2l1.75-1.714,1.167,1.143,3.5-3.429ZM6.654,11.346a1.706,1.706,0,0,1-1.24-.5,1.7,1.7,0,0,1,0-2.429,1.787,1.787,0,0,1,2.479,0,1.7,1.7,0,0,1,0,2.429A1.706,1.706,0,0,1,6.654,11.346Z" transform="translate(-1.571 -2.203)" fill="#fff"/>
</svg>
