<svg xmlns="http://www.w3.org/2000/svg" width="14" height="16" viewBox="0 0 14 16">
  <path id="Icon_simple-graphcool" data-name="Icon simple-graphcool" d="M15.84,5.286a2.153,2.153,0,0,0-1.956.232l-3.436,1.9a1.365,1.365,0,0,0-1.718.04A1.291,1.291,0,0,0,8.46,9.122a1.355,1.355,0,0,0,1.621.557,1.308,1.308,0,0,0,.853-1.458l3.426-1.9.022-.013c.225-.139.748-.347.992-.213.176.1.276.422.284.9h0v4.2a1.1,1.1,0,0,1-.561.951l-4.926,2.781a1.149,1.149,0,0,1-1.123,0L4.117,12.146a1.1,1.1,0,0,1-.561-.951V5.636a1.094,1.094,0,0,1,.561-.95L8.575,2.171a1.361,1.361,0,0,0,1.691.267A1.3,1.3,0,0,0,10.845.862,1.344,1.344,0,0,0,9.365.018,1.32,1.32,0,0,0,8.246,1.286l-4.6,2.6a2.019,2.019,0,0,0-1.04,1.753v5.559a2.019,2.019,0,0,0,1.036,1.754L8.568,15.73a2.118,2.118,0,0,0,2.072,0l4.926-2.781A2.022,2.022,0,0,0,16.6,11.2V7.154h0a1.9,1.9,0,0,0-.766-1.868Z" transform="translate(-2.607 0)" fill="#00a19c"/>
</svg>
