<svg id="robot" xmlns="http://www.w3.org/2000/svg" xmlns:xlink="http://www.w3.org/1999/xlink" width="80" height="80" viewBox="0 0 80 80">
  <defs>
    <radialGradient id="radial-gradient" cx="0.5" cy="0.5" r="0.5" gradientUnits="objectBoundingBox">
      <stop offset="0" stop-color="#a3fffc"/>
      <stop offset="1" stop-color="#0c877a"/>
    </radialGradient>
  </defs>
  <rect id="Rectangle_202" data-name="Rectangle 202" width="80" height="80" transform="translate(0)" fill="none"/>
  <path id="Icon_simple-probot" data-name="Icon simple-probot" d="M40,.06a5.832,5.832,0,0,0-1.79,11.374l-2.1,8.625H8.187A8.2,8.2,0,0,0,0,28.273V71.846A8.2,8.2,0,0,0,8.187,80.06H71.813A8.2,8.2,0,0,0,80,71.846V28.273a8.2,8.2,0,0,0-8.187-8.214H43.8L41.75,11.447A5.832,5.832,0,0,0,40,.06ZM13.11,26.283H66.9a6.659,6.659,0,0,1,6.647,6.669V66.786A6.658,6.658,0,0,1,66.9,73.455H13.11a6.658,6.658,0,0,1-6.647-6.669V32.952A6.659,6.659,0,0,1,13.11,26.283Zm10.847,7.732a15.3,15.3,0,1,0,15.25,15.3A15.275,15.275,0,0,0,23.957,34.015Zm32.477,0a15.3,15.3,0,1,0,15.25,15.3,15.275,15.275,0,0,0-15.25-15.3ZM23.957,37.594A11.724,11.724,0,1,1,12.27,49.318,11.7,11.7,0,0,1,23.957,37.594Zm32.477,0A11.724,11.724,0,1,1,44.747,49.318,11.7,11.7,0,0,1,56.433,37.594ZM23.957,43.155A6.164,6.164,0,1,0,30.1,49.319,6.154,6.154,0,0,0,23.957,43.155Zm32.477,0a6.164,6.164,0,1,0,6.143,6.164,6.154,6.154,0,0,0-6.143-6.164ZM33.343,64.893v7.22H35.7v-7.22Zm3.59,0v7.22h2.35v-7.22Zm3.587,0v7.22h2.353v-7.22Zm3.59,0v7.22h2.353v-7.22Zm3.59.1v7.023a3.609,3.609,0,0,0,2.763-3.508v0A3.61,3.61,0,0,0,47.7,64.994Zm-15.593.094A3.611,3.611,0,0,0,29.67,68.5v0a3.608,3.608,0,0,0,2.437,3.415V65.087Z" transform="translate(0 -0.06)" fill="url(#radial-gradient)"/>
</svg>
