<svg xmlns="http://www.w3.org/2000/svg" xmlns:xlink="http://www.w3.org/1999/xlink" width="16" height="16" viewBox="0 0 16 16">
  <defs>
    <radialGradient id="radial-gradient" cx="0.5" cy="0.5" r="0.133" gradientTransform="matrix(-0.311, 0.951, -0.951, -0.311, 1.131, 0.18)" gradientUnits="objectBoundingBox">
      <stop offset="0" stop-color="#00a19c"/>
      <stop offset="1" stop-color="#00a19c"/>
    </radialGradient>
  </defs>
  <path id="Icon_simple-probot" data-name="Icon simple-probot" d="M8,.06a1.166,1.166,0,0,0-.358,2.275L7.221,4.06H1.637A1.64,1.64,0,0,0,0,5.7v8.715A1.64,1.64,0,0,0,1.637,16.06H14.363A1.64,1.64,0,0,0,16,14.417V5.7A1.64,1.64,0,0,0,14.363,4.06h-5.6L8.35,2.337A1.166,1.166,0,0,0,8,.06ZM2.622,5.3H13.379a1.332,1.332,0,0,1,1.329,1.334v6.767a1.332,1.332,0,0,1-1.329,1.334H2.622a1.332,1.332,0,0,1-1.329-1.334V6.638A1.332,1.332,0,0,1,2.622,5.3ZM4.791,6.851a3.06,3.06,0,1,0,3.05,3.06A3.055,3.055,0,0,0,4.791,6.851Zm6.5,0a3.06,3.06,0,1,0,3.05,3.06,3.055,3.055,0,0,0-3.05-3.06Zm-6.5.716A2.345,2.345,0,1,1,2.454,9.912,2.341,2.341,0,0,1,4.791,7.567Zm6.5,0A2.345,2.345,0,1,1,8.949,9.912a2.341,2.341,0,0,1,2.337-2.345Zm-6.5,1.112A1.233,1.233,0,1,0,6.02,9.912,1.231,1.231,0,0,0,4.791,8.679Zm6.5,0a1.233,1.233,0,1,0,1.229,1.233,1.231,1.231,0,0,0-1.229-1.233ZM6.669,13.027v1.444h.471V13.027Zm.718,0v1.444h.47V13.027Zm.717,0v1.444h.471V13.027Zm.718,0v1.444h.471V13.027Zm.718.02v1.4a.722.722,0,0,0,.553-.7h0A.722.722,0,0,0,9.54,13.047Zm-3.119.019a.722.722,0,0,0-.487.683h0a.722.722,0,0,0,.487.683V13.065Z" transform="translate(0 -0.06)" fill="#fff"/>
</svg>
