<svg id="video_audio" data-name="video &amp; audio" xmlns="http://www.w3.org/2000/svg" xmlns:xlink="http://www.w3.org/1999/xlink" width="80" height="80.003" viewBox="0 0 80 80.003">
  <defs>
    <radialGradient id="radial-gradient" cx="0.5" cy="0.5" r="0.5" gradientUnits="objectBoundingBox">
      <stop offset="0" stop-color="#a3fffc"/>
      <stop offset="1" stop-color="#0c877a"/>
    </radialGradient>
  </defs>
  <rect id="Rectangle_205" data-name="Rectangle 205" width="80" height="80" fill="none"/>
  <path id="Union_7" data-name="Union 7" d="M-2901.592-9888v-4.3h4.3v4.3Zm-8.591,0v-4.3h4.3v4.3Zm-8.589,0v-4.3h4.3v4.3Zm8.589-8.605v-7.055c-7.043-1.056-12.884-7.122-12.884-14.457h3.651a11.149,11.149,0,0,0,11.381,10.97,11.15,11.15,0,0,0,11.383-10.97H-2893c0,7.335-5.841,13.4-12.887,14.457v7.055Zm-47.586-4.3a5.244,5.244,0,0,1-5.232-5.243v-56.607a5.246,5.246,0,0,1,5.232-5.246h32.444c.937,0,2.575.288,5.949,2.765a59.794,59.794,0,0,1,6.521,5.714,59.879,59.879,0,0,1,5.7,6.531c2.475,3.38,2.76,5.019,2.76,5.957V-9941h-4.186v-6.036h-14.652a2.1,2.1,0,0,1-2.093-2.1v-14.677h-32.444a1.064,1.064,0,0,0-1.047,1.053v56.607a1.06,1.06,0,0,0,1.047,1.048h35.763v4.2Zm36.629-50.323h10.072a57.855,57.855,0,0,0-4.748-5.331,57.957,57.957,0,0,0-5.324-4.755Zm6.663,33.112v-12.906a6.438,6.438,0,0,1,6.441-6.454,6.439,6.439,0,0,1,6.443,6.454l-.022,12.906a6.422,6.422,0,0,1-6.421,6.454A6.44,6.44,0,0,1-2914.476-9918.115Zm-27.594,4.628v-29.352l20.931,14.677-20.928,14.675Z" transform="translate(2968 9968.001)" fill="url(#radial-gradient)"/>
</svg>
